<svg width="21" height="20" viewBox="0 0 21 20" fill="none" xmlns="http://www.w3.org/2000/svg">
<path d="M9.73738 1.27909C10.0811 0.462633 11.2519 0.462634 11.5956 1.27909L13.6244 6.09798C13.7694 6.44218 14.0971 6.67736 14.4732 6.70715L19.7392 7.12423C20.6314 7.19489 20.9932 8.29488 20.3134 8.87015L16.3013 12.2654C16.0147 12.508 15.8895 12.8885 15.9771 13.2511L17.2028 18.3277C17.4105 19.1879 16.4634 19.8678 15.6995 19.4069L11.191 16.6863C10.869 16.492 10.464 16.492 10.142 16.6863L5.63349 19.4069C4.86962 19.8678 3.92246 19.1879 4.13014 18.3277L5.35593 13.2511C5.44348 12.8885 5.31833 12.508 5.03176 12.2654L1.01957 8.87015C0.339786 8.29488 0.701572 7.19489 1.59379 7.12423L6.85986 6.70715C7.236 6.67736 7.56366 6.44218 7.70857 6.09798L9.73738 1.27909Z" fill="#F9B811"/>
</svg>
